<svg width="32" height="32" viewBox="0 0 32 32" fill="none" xmlns="http://www.w3.org/2000/svg" role="img" aria-label="Ghost icon">
  <title>Ghost icon</title>
  <desc>Simple ghost with rounded body and two eyes</desc>
  <path d="M16 3c5.8 0 9.5 4.4 9.5 10.2v10.9c0 .7-.8 1.1-1.4.7l-2.1-1.4c-.4-.2-.9-.2-1.2.1l-1.8 1.7c-.5.5-1.3.5-1.8 0l-1.8-1.7c-.3-.3-.8-.3-1.2-.1l-1.8 1.2c-.5.3-1.1.3-1.6 0l-1.8-1.2c-.4-.2-.9-.2-1.2.1l-1.9 1.7c-.6.5-1.5.1-1.5-.7V13.2C6.5 7.4 10.2 3 16 3z"
        fill="#FFFFFF" stroke="#0F172A" stroke-width="1.5" stroke-linejoin="round"/>
  <circle cx="12.5" cy="13.5" r="1.8" fill="#0F172A"/>
  <circle cx="19.5" cy="13.5" r="1.8" fill="#0F172A"/>
</svg>